# xmcd
#
# Track frame offsets:
#	150
#	21575
#	76290
#	133060
#	193055
#	226865
#
# Disc length: 3074 seconds
#
# Revision: 0
# Processed by: cddbd v1.5.1PL0 Copyright (c) Steve Scherf et al.
# Submitted via: EasyCDDAExtractor 7.1.2.1
#
DISCID=4a0c0006
DTITLE=Jo Dee Messina - The Radio Special
DYEAR=1994
DGENRE=Country
TTITLE0=A Redhead On A Mission
TTITLE1=Super Star Friends
TTITLE2=A Family Band
TTITLE3=A Last Minute Addition
TTITLE4=Powerful New Single
TTITLE5=Promo Track
EXTD=
EXTT0=
EXTT1=
EXTT2=
EXTT3=
EXTT4=
EXTT5=
PLAYORDER=
